<svg xmlns="http://www.w3.org/2000/svg" viewBox="0 0 256 256" role="img" aria-labelledby="logoTitle logoDesc">
  <title id="logoTitle">Sistema de Presenças - Identidade Segura</title>
  <desc id="logoDesc">Chave estilizada dentro de um hexágono azul brilhante com efeito de brilho</desc>
  <defs>
    <radialGradient id="bgGlow" cx="50%" cy="50%" r="60%">
      <stop offset="0%" stop-color="#0f172a" stop-opacity="0.85" />
      <stop offset="55%" stop-color="#020617" stop-opacity="0.9" />
      <stop offset="100%" stop-color="#000000" stop-opacity="1" />
    </radialGradient>
    <radialGradient id="hexGlow" cx="50%" cy="50%" r="70%">
      <stop offset="0%" stop-color="#67f9ff" stop-opacity="1" />
      <stop offset="55%" stop-color="#3be7ff" stop-opacity="0.9" />
      <stop offset="100%" stop-color="#00a8d6" stop-opacity="0.6" />
    </radialGradient>
    <linearGradient id="keyGradient" x1="30%" y1="20%" x2="70%" y2="90%">
      <stop offset="0%" stop-color="#edfcff" />
      <stop offset="100%" stop-color="#a8e9ff" />
    </linearGradient>
    <filter id="outerGlow" x="-40%" y="-40%" width="180%" height="180%" color-interpolation-filters="sRGB">
      <feGaussianBlur stdDeviation="12" result="blur" />
      <feMerge>
        <feMergeNode in="blur" />
        <feMergeNode in="blur" />
      </feMerge>
    </filter>
    <filter id="innerShadow" x="-20%" y="-20%" width="140%" height="140%">
      <feOffset dx="0" dy="12" />
      <feGaussianBlur stdDeviation="18" result="shadow" />
      <feColorMatrix
        in="shadow"
        type="matrix"
        values="0 0 0 0 0.02  0 0 0 0 0.09  0 0 0 0 0.18  0 0 0 0.55 0"
      />
      <feBlend in="SourceGraphic" mode="screen" />
    </filter>
  </defs>

  <rect width="256" height="256" fill="url(#bgGlow)" />

  <g filter="url(#outerGlow)">
    <path
      d="M128 20l91 52.5v105L128 230l-91-52.5v-105L128 20z"
      fill="#0ce4ff"
      opacity="0.45"
    />
  </g>

  <path
    d="M128 38l74 42.4v84.8L128 208l-74-42.4V80.4L128 38z"
    fill="url(#hexGlow)"
    stroke="#72f7ff"
    stroke-width="3"
    filter="url(#innerShadow)"
  />

  <g transform="translate(92 62)">
    <path
      d="M72 48c0-21.6-17.4-39-39-39s-39 17.4-39 39c0 16.5 10.3 31 25 36.7V120c0 4.4 3.6 8 8 8h18c4.4 0 8-3.6 8-8v-25.4l8.6-.1 9.8 9.9a6.5 6.5 0 1 0 9.2-9.2l-9.8-9.8c-3-3-7-4.7-11.3-4.7H108V84c14.9-4.1 26-18.4 26-36zM33 86c-12.4 0-22.5-10-22.5-22.5S20.6 41 33 41s22.5 10 22.5 22.5S45.4 86 33 86z"
      fill="url(#keyGradient)"
      opacity="0.95"
    />
    <circle cx="33" cy="63.5" r="19" fill="#0fc7f0" opacity="0.9" />
  </g>
</svg>
